<?xml version="1.0" encoding="UTF-8"?>
<!DOCTYPE svg PUBLIC "-//W3C//DTD SVG 1.1//EN" "http://www.w3.org/Graphics/SVG/1.1/DTD/svg11.dtd">
<svg xmlns="http://www.w3.org/2000/svg" version="1.1" width="32px" height="32px" style="shape-rendering:geometricPrecision; text-rendering:geometricPrecision; image-rendering:optimizeQuality; fill-rule:evenodd; clip-rule:evenodd" xmlns:xlink="http://www.w3.org/1999/xlink">
<g><path style="opacity:0.997" fill="#f64e25" d="M 8.5,-0.5 C 13.1667,-0.5 17.8333,-0.5 22.5,-0.5C 25.8333,2.16667 28.8333,5.16667 31.5,8.5C 31.5,13.1667 31.5,17.8333 31.5,22.5C 28.8333,25.8333 25.8333,28.8333 22.5,31.5C 18.8333,31.5 15.1667,31.5 11.5,31.5C 9.11158,28.9028 9.11158,26.4028 11.5,24C 15.5,23.6667 19.5,23.3333 23.5,23C 23.8333,22.6667 24.1667,22.3333 24.5,22C 23.0267,21.2904 22.3601,20.1238 22.5,18.5C 23.675,18.719 24.675,18.3857 25.5,17.5C 23.2076,13.0789 20.5409,8.91226 17.5,5C 14.2711,6.12212 11.2711,5.62212 8.5,3.5C 7.5,4.16667 6.5,4.83333 5.5,5.5C 4.70245,5.04311 4.36912,4.37644 4.5,3.5C 5.83333,2.16667 7.16667,0.833333 8.5,-0.5 Z"/></g>
<g><path style="opacity:0.999" fill="#f7f5f4" d="M 4.5,3.5 C 4.36912,4.37644 4.70245,5.04311 5.5,5.5C 6.5,4.83333 7.5,4.16667 8.5,3.5C 11.2711,5.62212 14.2711,6.12212 17.5,5C 20.5409,8.91226 23.2076,13.0789 25.5,17.5C 24.675,18.3857 23.675,18.719 22.5,18.5C 22.3601,20.1238 23.0267,21.2904 24.5,22C 24.1667,22.3333 23.8333,22.6667 23.5,23C 19.5,23.3333 15.5,23.6667 11.5,24C 9.11158,26.4028 9.11158,28.9028 11.5,31.5C 10.5,31.5 9.5,31.5 8.5,31.5C 5.16667,28.8333 2.16667,25.8333 -0.5,22.5C -0.5,17.8333 -0.5,13.1667 -0.5,8.5C 0.938669,6.63968 2.60534,4.97302 4.5,3.5 Z"/></g>
<g><path style="opacity:1" fill="#ff6843" d="M 15.5,13.5 C 17.337,13.6395 17.6704,14.3061 16.5,15.5C 15.7025,15.0431 15.3691,14.3764 15.5,13.5 Z"/></g>
</svg>
